<svg xmlns="http://www.w3.org/2000/svg" width="512" height="512" viewBox="0 0 512 512" role="img" aria-labelledby="title desc">
  <title id="title">Helmr logo</title>
  <desc id="desc">A deep teal H with a ship helm wheel crossbar above the helmr wordmark.</desc>
  <g fill="#0F6E56">
    <rect x="126" y="72" width="58" height="250" rx="18"/>
    <rect x="328" y="72" width="58" height="250" rx="18"/>
  </g>

  <g transform="translate(256 198)" stroke="#0F6E56" stroke-width="18" stroke-linecap="round" stroke-linejoin="round" fill="none">
    <circle r="58"/>
    <circle r="18" fill="#0F6E56" stroke="none"/>
    <line x1="-96" y1="0" x2="-58" y2="0"/>
    <line x1="58" y1="0" x2="96" y2="0"/>
    <line x1="0" y1="-96" x2="0" y2="-58"/>
    <line x1="0" y1="58" x2="0" y2="96"/>
    <line x1="-68" y1="-68" x2="-41" y2="-41"/>
    <line x1="41" y1="41" x2="68" y2="68"/>
    <line x1="68" y1="-68" x2="41" y2="-41"/>
    <line x1="-41" y1="41" x2="-68" y2="68"/>
    <circle cx="-112" cy="0" r="12" fill="#0F6E56" stroke="none"/>
    <circle cx="112" cy="0" r="12" fill="#0F6E56" stroke="none"/>
    <circle cx="0" cy="-112" r="12" fill="#0F6E56" stroke="none"/>
    <circle cx="0" cy="112" r="12" fill="#0F6E56" stroke="none"/>
    <circle cx="-79" cy="-79" r="12" fill="#0F6E56" stroke="none"/>
    <circle cx="79" cy="79" r="12" fill="#0F6E56" stroke="none"/>
    <circle cx="79" cy="-79" r="12" fill="#0F6E56" stroke="none"/>
    <circle cx="-79" cy="79" r="12" fill="#0F6E56" stroke="none"/>
  </g>

  <text
    x="256"
    y="432"
    text-anchor="middle"
    fill="#0F6E56"
    font-family="-apple-system, BlinkMacSystemFont, 'Segoe UI', Roboto, Arial, sans-serif"
    font-size="88"
    font-weight="600"
    letter-spacing="-0.03em"
  >helmr</text>
</svg>
